<?xml version="1.0" standalone="no"?>
<!DOCTYPE svg PUBLIC "-//W3C//DTD SVG 20010904//EN"
 "http://www.w3.org/TR/2001/REC-SVG-20010904/DTD/svg10.dtd">
<svg version="1.0" xmlns="http://www.w3.org/2000/svg"
 width="594.000000pt" height="504.000000pt" viewBox="0 0 594.000000 504.000000"
 preserveAspectRatio="xMidYMid meet">

<g transform="translate(0.000000,504.000000) scale(0.100000,-0.100000)"
fill="#ffffff" stroke="none">
<path d="M2851 4671 c-7 -5 -11 -24 -9 -47 2 -31 7 -39 23 -39 16 0 21 8 23
41 3 43 -12 60 -37 45z"/>
<path d="M2852 4531 c-9 -5 -13 -118 -14 -402 l-3 -394 -64 -3 c-53 -3 -64 -6
-68 -23 -4 -15 -14 -19 -47 -19 -33 0 -48 -6 -66 -25 l-24 -26 19 -55 c13 -38
15 -58 8 -65 -6 -6 -48 -19 -94 -29 -165 -37 -359 -111 -423 -161 -33 -26 -33
-56 -1 -119 14 -27 25 -54 25 -60 0 -6 -27 -10 -64 -10 -43 0 -67 -5 -76 -15
-22 -26 0 -35 85 -35 84 0 85 0 100 -30 9 -17 13 -35 10 -40 -3 -6 -33 -10
-66 -10 -54 0 -59 -2 -59 -22 0 -31 79 -102 136 -122 30 -10 81 -16 139 -16
l92 0 46 -157 c59 -201 78 -275 116 -448 60 -276 105 -540 95 -557 -3 -4 -41
-8 -85 -8 -43 0 -79 -4 -79 -9 0 -5 -3 -16 -6 -25 -5 -14 6 -16 89 -16 l94 0
11 -117 c26 -263 26 -277 11 -267 -8 4 -41 27 -74 50 -157 109 -366 174 -559
174 -121 0 -348 -51 -376 -85 -17 -21 -2 -38 29 -31 14 3 69 17 121 32 130 36
322 38 450 5 180 -47 373 -165 484 -294 59 -69 148 -212 166 -266 14 -43 14
-44 -10 -60 -14 -8 -44 -35 -67 -58 l-41 -44 -64 22 c-75 26 -197 29 -271 6
l-48 -15 -20 44 c-28 58 -116 138 -175 158 -58 20 -120 21 -127 3 -9 -23 6
-34 57 -41 87 -11 170 -75 204 -156 13 -33 13 -35 -9 -50 -46 -30 -79 -62 -79
-76 0 -28 29 -25 72 8 106 81 251 109 373 71 l60 -19 5 -49 c4 -41 8 -50 25
-50 15 0 21 9 27 42 30 178 238 245 360 116 51 -53 77 -154 43 -167 -8 -3 -15
-15 -15 -26 0 -17 6 -20 38 -20 53 0 122 -38 146 -79 19 -33 19 -35 2 -45 -10
-6 -32 -22 -48 -35 -27 -22 -30 -22 -62 -7 -43 20 -52 20 -103 -3 -25 -12 -48
-32 -57 -50 -19 -35 -21 -93 -5 -123 8 -14 8 -23 0 -31 -16 -16 -14 -37 4 -43
9 -4 30 7 50 25 20 17 43 31 53 32 9 1 26 2 36 3 13 1 24 14 33 41 17 53 66
111 111 134 122 61 252 11 309 -117 l23 -53 48 7 c64 10 77 8 124 -16 43 -22
58 -20 58 10 0 31 -74 63 -143 63 -57 -1 -58 0 -76 36 -44 86 -152 151 -252
151 -31 0 -38 4 -49 30 -16 40 -79 95 -124 110 -34 11 -36 14 -36 54 0 53 -40
135 -86 175 -30 27 -32 31 -16 40 29 15 90 24 127 17 19 -4 58 -23 86 -42 55
-37 79 -38 79 -4 0 11 9 37 19 58 106 206 410 135 411 -95 0 -59 -3 -56 81
-53 41 1 60 -3 72 -15 15 -15 15 -18 1 -40 -17 -27 -13 -55 9 -55 7 0 29 22
50 50 100 133 271 214 448 212 192 -2 383 -121 468 -290 18 -35 38 -62 46 -62
30 0 29 33 -3 94 -52 99 -164 205 -265 251 -31 15 -57 28 -57 29 0 2 37 59 83
127 185 279 311 600 364 934 25 157 25 526 0 685 -57 362 -195 700 -405 995
-175 244 -371 431 -630 600 -327 212 -764 349 -1135 356 -94 2 -120 -8 -97
-36 9 -11 33 -15 99 -15 258 0 617 -93 892 -230 449 -224 803 -580 1019 -1025
143 -294 212 -566 227 -894 19 -446 -102 -905 -342 -1289 -87 -140 -127 -187
-156 -184 -92 9 -220 4 -273 -12 -84 -25 -183 -77 -237 -125 -26 -22 -49 -37
-53 -34 -3 3 -6 230 -6 504 l0 497 -31 26 c-25 22 -41 26 -90 26 -58 0 -60 1
-74 33 -16 39 -70 92 -108 106 -93 35 -200 -16 -237 -113 -9 -24 -14 -26 -65
-26 -70 0 -109 -20 -124 -61 -7 -21 -11 -142 -11 -345 0 -173 -2 -314 -5 -314
-3 0 -16 7 -28 15 -65 42 -194 53 -285 24 -18 -6 -35 -9 -37 -7 -5 5 13 336
26 463 28 290 126 842 161 908 7 14 23 17 87 17 63 0 80 3 85 16 11 28 -3 34
-74 34 -38 0 -71 4 -74 8 -3 5 15 73 39 153 67 221 46 196 172 201 119 4 146
14 214 75 24 22 39 44 39 59 0 23 -3 24 -70 24 -38 0 -70 4 -70 10 0 13 22 60
29 61 3 1 41 2 84 4 85 3 109 14 87 40 -9 11 -31 15 -76 15 -35 0 -64 2 -64 5
0 3 11 28 25 55 45 89 33 115 -73 169 -87 44 -222 91 -332 116 -97 22 -120 31
-120 50 0 12 28 15 183 17 180 3 182 3 185 26 l3 22 -165 0 -166 0 -15 37
c-20 47 -29 53 -83 53 -35 0 -45 4 -49 20 -4 16 -15 20 -67 22 l-61 3 -3 396
c-2 408 -4 423 -40 400z m244 -913 c-24 -81 -19 -125 15 -146 12 -8 67 -25
122 -38 124 -30 237 -68 302 -103 l50 -26 -701 -3 c-653 -2 -702 -3 -709 -19
-3 -10 0 -22 8 -28 10 -7 244 -12 713 -14 385 -1 700 -4 702 -5 1 -2 -7 -24
-18 -49 l-21 -47 -695 0 -695 0 -30 67 c-16 37 -27 73 -24 80 12 32 257 124
414 156 96 20 125 46 117 102 -3 22 -8 52 -12 68 l-6 27 237 0 237 0 -6 -22z
m424 -549 c0 -5 -5 -19 -10 -30 -10 -18 -28 -19 -644 -19 l-633 0 -11 25 c-7
14 -12 28 -12 30 0 3 295 5 655 5 460 0 655 -3 655 -11z m82 -129 c-13 -11
-41 -24 -61 -30 -24 -6 -277 -9 -692 -7 -600 2 -657 3 -686 19 -17 10 -35 22
-38 28 -4 7 244 10 747 10 748 -1 753 -1 730 -20z m-1010 -169 c40 -174 76
-631 50 -631 -7 0 -12 8 -12 17 0 46 -87 387 -171 666 l-8 28 62 -3 62 -3 17
-74z m204 -231 c1 -315 10 -419 45 -550 33 -121 86 -194 106 -144 3 8 0 26 -7
39 -12 22 -10 28 17 59 68 76 133 336 219 874 5 32 6 32 59 32 30 0 55 -2 55
-3 0 -2 -9 -30 -20 -63 -63 -182 -138 -471 -179 -689 -67 -361 -98 -644 -108
-982 -3 -128 -9 -230 -13 -228 -4 3 -29 42 -55 89 -25 46 -73 113 -104 149
l-58 64 -6 129 c-4 71 -17 208 -29 304 -18 147 -21 218 -19 445 2 149 -2 326
-9 395 -11 116 -43 331 -56 373 -5 16 1 18 78 15 l83 -3 1 -305z m324 290 c0
-95 -120 -690 -140 -690 -4 0 -8 32 -8 71 0 58 3 73 19 87 24 21 24 33 -1 55
-11 9 -20 21 -20 27 0 5 9 15 20 22 11 7 20 20 20 28 0 9 -9 23 -20 33 -11 9
-20 24 -20 32 0 8 9 20 20 27 20 13 28 48 10 48 -5 0 -14 9 -20 20 -8 16 -7
23 10 37 25 22 26 39 1 53 -21 11 -18 45 5 54 18 7 18 46 0 46 -17 0 -24 17
-18 47 4 21 9 23 73 23 62 0 69 -2 69 -20z m-230 -70 c0 -13 -7 -20 -20 -20
-13 0 -20 7 -20 20 0 13 7 20 20 20 13 0 20 -7 20 -20z m-5 -106 c0 -10 -8
-20 -17 -22 -18 -3 -26 27 -11 42 12 11 28 0 28 -20z m0 -109 c0 -28 -29 -25
-33 3 -3 19 0 23 15 20 10 -2 18 -12 18 -23z m5 -105 c0 -13 -7 -20 -20 -20
-13 0 -20 7 -20 20 0 13 7 20 20 20 13 0 20 -7 20 -20z m-5 -106 c0 -10 -8
-20 -17 -22 -18 -3 -26 27 -11 42 12 11 28 0 28 -20z m3 -106 c-2 -13 -10 -23
-18 -23 -8 0 -16 10 -18 23 -3 17 2 22 18 22 16 0 21 -5 18 -22z m928 -404
c36 -17 78 -66 67 -78 -10 -9 -243 -7 -243 3 0 18 44 64 74 77 41 18 61 17
102 -2z m252 -146 c9 -9 12 -132 12 -490 l0 -479 -37 6 c-59 10 -63 13 -63 43
0 16 -11 51 -25 78 -14 27 -25 50 -25 50 0 1 9 4 20 7 12 3 20 14 20 26 0 20
-24 27 -89 23 -7 0 -34 9 -60 20 -121 53 -271 5 -337 -108 -15 -25 -28 -43
-30 -41 -3 2 -4 194 -4 427 0 299 3 427 11 436 16 19 588 21 607 2z m-728
-696 c44 -27 45 -29 48 -82 l3 -55 -88 0 c-74 0 -94 -4 -130 -24 -34 -19 -49
-22 -87 -17 -30 5 -46 13 -49 24 -8 31 -7 137 0 148 40 57 213 61 303 6z m-45
-731 c3 -5 -2 -26 -12 -45 -12 -27 -26 -39 -51 -46 -43 -11 -52 -7 -52 27 0
38 36 73 76 73 18 0 35 -4 39 -9z"/>
<path d="M2973 3563 c-9 -21 -18 -58 -20 -83 -7 -66 17 -84 142 -110 55 -11
124 -26 153 -32 40 -9 55 -9 64 0 29 29 -35 55 -215 88 -53 10 -91 22 -94 30
-3 8 2 35 11 61 22 63 21 83 -5 83 -14 0 -25 -12 -36 -37z"/>
<path d="M2962 1808 c2 -15 10 -23 23 -23 30 0 27 39 -3 43 -20 3 -23 0 -20
-20z"/>
<path d="M3547 1586 c-12 -32 18 -36 224 -34 203 3 204 3 207 26 l3 22 -214 0
c-177 0 -216 -3 -220 -14z"/>
<path d="M3545 1460 c-4 -6 -1 -18 6 -26 10 -12 46 -14 218 -12 205 3 206 3
209 26 l3 22 -215 0 c-138 0 -217 -4 -221 -10z"/>
<path d="M3740 1342 c-101 -1 -189 -7 -194 -12 -6 -6 -4 -15 4 -25 11 -13 42
-15 219 -13 205 3 206 3 209 26 2 14 -2 22 -11 22 -9 0 -21 1 -29 3 -7 1 -96
1 -198 -1z"/>
<path d="M3690 1212 c-74 -1 -139 -7 -144 -12 -6 -6 -4 -15 4 -25 11 -13 42
-15 219 -13 205 3 206 3 209 26 2 15 -2 22 -15 24 -34 3 -139 3 -273 0z"/>
<path d="M3545 1060 c-4 -6 -1 -18 6 -26 10 -12 46 -14 218 -12 205 3 206 3
209 26 l3 22 -215 0 c-138 0 -217 -4 -221 -10z"/>
<path d="M2575 4504 c-294 -53 -596 -170 -845 -329 -401 -255 -721 -642 -898
-1086 -106 -266 -151 -486 -159 -781 -3 -112 -1 -231 6 -300 40 -389 180 -768
397 -1080 30 -43 54 -82 54 -87 0 -6 -11 -50 -25 -98 -14 -49 -29 -124 -33
-168 l-7 -80 -75 -5 c-68 -5 -75 -7 -78 -27 -3 -22 0 -23 71 -23 82 0 87 -4
87 -63 0 -40 13 -60 35 -55 15 3 17 16 16 128 -3 231 58 419 195 599 51 66 55
75 41 89 -13 12 -19 13 -31 3 -22 -19 -109 -138 -136 -189 -13 -23 -28 -42
-32 -42 -16 0 -150 215 -208 335 -147 302 -214 575 -227 915 -22 622 200 1197
636 1644 197 201 383 335 632 455 212 102 444 174 649 202 94 12 129 27 116
48 -9 15 -83 12 -181 -5z"/>
<path d="M3922 4066 c-9 -24 -25 -40 -54 -55 l-42 -20 38 -16 c22 -10 45 -30
58 -52 l21 -35 20 37 c11 22 30 42 48 48 36 14 36 18 -1 39 -16 9 -37 33 -47
52 -9 20 -19 36 -23 36 -3 0 -12 -15 -18 -34z"/>
<path d="M2215 4000 c-4 -6 -1 -18 6 -26 10 -12 39 -14 158 -12 143 3 146 3
149 26 l3 22 -155 0 c-97 0 -157 -4 -161 -10z"/>
<path d="M3481 3890 c-19 -11 -9 -45 14 -45 13 0 21 8 23 21 3 23 -17 37 -37
24z"/>
<path d="M1871 3746 c-17 -20 -2 -48 23 -44 24 3 34 37 14 49 -18 12 -24 11
-37 -5z"/>
<path d="M1380 3575 c-10 -12 -10 -21 -1 -41 14 -32 14 -76 -1 -109 -10 -21
-9 -29 5 -42 15 -16 19 -16 52 0 30 14 42 15 80 5 60 -16 73 -4 56 52 -9 32
-9 49 -1 76 20 59 -5 80 -63 53 -18 -8 -32 -7 -62 5 -46 20 -49 20 -65 1z
m130 -95 c0 -27 -3 -30 -30 -30 -27 0 -30 3 -30 30 0 27 3 30 30 30 27 0 30
-3 30 -30z"/>
<path d="M4051 3095 c-11 -19 -27 -35 -35 -35 -27 0 -28 -20 -2 -30 14 -5 34
-23 45 -40 l18 -31 12 29 c7 16 24 35 37 41 l25 11 -30 26 c-17 14 -31 32 -31
39 0 29 -19 24 -39 -10z"/>
<path d="M4256 2965 c-64 -23 -146 -118 -146 -170 0 -9 -9 -15 -25 -15 -41 0
-105 -38 -127 -76 -11 -18 -28 -34 -37 -34 -23 0 -41 -19 -34 -36 8 -22 92
-19 99 4 20 63 71 99 123 87 34 -7 46 6 54 58 13 85 108 156 191 143 59 -10
110 -47 136 -100 l22 -46 54 0 c87 0 140 -40 161 -120 9 -34 11 -35 63 -38 29
-2 57 1 63 7 16 16 -11 41 -44 41 -25 0 -32 6 -45 40 -22 54 -84 106 -144 120
-27 7 -53 9 -58 6 -5 -3 -21 12 -35 33 -63 95 -169 133 -271 96z"/>
<path d="M1424 2665 c-10 -25 6 -35 56 -35 47 0 62 11 53 38 -7 18 -102 16
-109 -3z"/>
<path d="M1593 2665 c-11 -31 13 -36 158 -33 136 3 144 4 144 23 0 19 -8 20
-148 23 -127 2 -148 0 -154 -13z"/>
<path d="M3777 2663 c-4 -3 -7 -15 -7 -25 0 -23 48 -25 57 -2 9 23 -32 45 -50
27z"/>
<path d="M4910 2655 c-19 -22 -3 -35 45 -35 24 0 47 5 50 10 11 18 -16 40 -50
40 -18 0 -38 -7 -45 -15z"/>
<path d="M2267 2584 c-16 -16 -7 -44 14 -44 15 0 20 5 17 22 -3 22 -19 33 -31
22z"/>
<path d="M4317 2406 c-8 -20 20 -43 35 -28 14 14 3 42 -16 42 -7 0 -16 -6 -19
-14z"/>
<path d="M3723 2324 c-9 -23 13 -40 32 -24 12 10 13 16 4 26 -15 18 -28 18
-36 -2z"/>
<path d="M4131 2111 c-8 -5 -11 -16 -8 -25 5 -13 23 -16 91 -16 86 0 108 9 86
35 -14 17 -145 21 -169 6z"/>
<path d="M1446 2090 c-35 -11 -63 -36 -82 -72 -12 -23 -21 -28 -50 -28 -60 0
-130 -51 -153 -112 -6 -16 -19 -28 -33 -30 -15 -2 -23 -10 -23 -23 0 -17 7
-20 44 -20 42 0 44 1 60 45 22 60 70 93 130 88 46 -3 48 -2 69 54 16 40 65 62
107 48 45 -15 58 -33 65 -89 6 -51 -4 -48 100 -35 59 7 114 -25 150 -85 28
-49 47 -61 56 -37 17 43 -42 126 -111 157 -22 10 -63 19 -92 19 -48 0 -52 2
-58 29 -7 33 -48 75 -88 90 -33 13 -51 13 -91 1z"/>
<path d="M1892 2067 c-9 -10 -9 -18 1 -31 17 -23 49 -11 45 18 -4 25 -30 32
-46 13z"/>
<path d="M964 1836 c-9 -24 5 -36 42 -36 31 0 35 3 32 23 -2 17 -11 23 -36 25
-22 2 -34 -2 -38 -12z"/>
<path d="M1950 1824 c-11 -12 -11 -18 2 -30 8 -8 22 -12 31 -8 21 8 22 40 1
48 -21 8 -20 8 -34 -10z"/>
<path d="M2363 1779 c-27 -10 -53 -47 -53 -76 0 -22 -4 -23 -69 -23 -72 0 -92
-10 -71 -35 10 -12 39 -15 125 -15 98 0 116 3 139 21 65 51 7 157 -71 128z
m44 -65 c8 -22 -18 -37 -36 -20 -7 8 -10 19 -7 25 10 16 36 13 43 -5z"/>
<path d="M4531 1716 c-9 -10 -8 -16 4 -26 19 -16 41 1 32 24 -8 20 -21 20 -36
2z"/>
<path d="M963 1505 c-3 -9 -1 -21 4 -26 5 -5 103 -8 239 -7 221 3 229 4 229
23 0 19 -8 20 -233 23 -205 2 -233 0 -239 -13z"/>
<path d="M4297 1326 c-11 -28 19 -37 119 -34 91 3 99 5 99 23 0 19 -8 20 -106
23 -86 2 -108 0 -112 -12z"/>
<path d="M4567 1326 c-9 -23 18 -37 65 -34 36 2 44 7 46 26 3 20 0 22 -51 22
-38 0 -57 -4 -60 -14z"/>
<path d="M2003 875 c-22 -9 -33 -21 -33 -35 0 -23 13 -25 59 -9 24 9 31 16 29
32 -4 27 -16 29 -55 12z"/>
<path d="M5185 650 c-4 -6 -1 -18 6 -26 9 -12 34 -14 123 -12 103 3 111 4 111
23 0 19 -8 20 -117 23 -75 2 -119 -1 -123 -8z"/>
<path d="M5119 418 c0 -2 -1 -66 -2 -143 -2 -128 -5 -146 -30 -204 -15 -36
-27 -65 -27 -66 0 -1 48 -2 106 -3 87 -1 104 2 94 13 -10 12 -30 22 -92 44
l-26 10 15 48 c18 57 21 235 4 276 -6 15 -17 27 -26 27 -8 0 -15 -1 -16 -2z"/>
<path d="M1091 262 c-6 -11 -34 -25 -73 -36 -80 -22 -178 -81 -178 -106 0 -29
18 -33 50 -10 39 28 129 67 173 75 27 5 41 3 53 -10 15 -14 19 -15 32 -2 12
13 13 21 1 59 -15 47 -41 61 -58 30z"/>
<path d="M757 62 c-23 -25 -22 -52 1 -52 25 0 56 35 49 55 -8 20 -30 19 -50
-3z"/>
</g>
</svg>
